<svg width="40" height="72" viewBox="0 0 40 72" fill="none" xmlns="http://www.w3.org/2000/svg">
<path d="M20 34.4C15.16 34.4 11.2 30.44 11.2 25.6V14.4C11.2 9.56001 15.16 5.60001 20 5.60001C24.84 5.60001 28.8 9.56001 28.8 14.4V25.6C28.8 30.44 24.84 34.4 20 34.4ZM20 7.20001C16.04 7.20001 12.8 10.44 12.8 14.4V25.6C12.8 29.56 16.04 32.8 20 32.8C23.96 32.8 27.2 29.56 27.2 25.6V14.4C27.2 10.44 23.96 7.20001 20 7.20001Z" fill="white"/>
<path d="M20 15.6C19.56 15.6 19.2 15.24 19.2 14.8V11.6C19.2 11.16 19.56 10.8 20 10.8C20.44 10.8 20.8 11.16 20.8 11.6V14.8C20.8 15.24 20.44 15.6 20 15.6Z" fill="white"/>
<g clip-path="url(#clip0)">
<path d="M11.6446 43.087C11.2903 43.087 11.0023 43.3681 11.0023 43.7151C11.0023 43.8917 11.0765 44.0512 11.1969 44.1656L19.5455 52.3287C19.6619 52.4425 19.8223 52.5129 19.9994 52.5129C20.1766 52.5129 20.3375 52.4425 20.4534 52.3287L28.802 44.1656C28.9235 44.0512 28.9994 43.8906 28.9994 43.7124C28.9994 43.3653 28.712 43.0843 28.3571 43.0843C28.1748 43.0843 28.0106 43.1585 27.8936 43.2773L19.9989 50.9966L12.1042 43.2773C11.9872 43.1596 11.8241 43.087 11.6429 43.087H11.6446Z" fill="white"/>
</g>
<g clip-path="url(#clip1)">
<path d="M11.6446 54.087C11.2903 54.087 11.0023 54.3681 11.0023 54.7151C11.0023 54.8917 11.0765 55.0512 11.1969 55.1656L19.5455 63.3287C19.6619 63.4425 19.8223 63.5129 19.9994 63.5129C20.1766 63.5129 20.3375 63.4425 20.4534 63.3287L28.802 55.1656C28.9235 55.0512 28.9994 54.8906 28.9994 54.7124C28.9994 54.3653 28.712 54.0843 28.3571 54.0843C28.1748 54.0843 28.0106 54.1585 27.8936 54.2773L19.9989 61.9966L12.1042 54.2773C11.9872 54.1596 11.8241 54.087 11.6429 54.087H11.6446Z" fill="white"/>
</g>
<defs>
<clipPath id="clip0">
<rect width="18" height="22" fill="white" transform="translate(11 39)"/>
</clipPath>
<clipPath id="clip1">
<rect width="18" height="22" fill="white" transform="translate(11 50)"/>
</clipPath>
</defs>
</svg>
